<svg width="123" height="456" viewBox="0 0 123 456" fill="none" xmlns="http://www.w3.org/2000/svg">
<path fill-rule="evenodd" clip-rule="evenodd" d="M4.70414 70.989C4.70414 70.989 1.68783 74.3069 9.67186e-06 80.0379L0 444.395C0 451.646 2.95037 455.272 8.85111 455.272H115.107C120.316 455.272 122.921 451.646 122.921 444.395V80.0379C122.921 75.8173 122.023 72.5999 120.229 70.3857L70.9092 4.59805C64.61 -1.53268 58.3107 -1.53268 52.0115 4.59805L4.70414 70.989ZM52.0085 31.1115C52.0085 25.8958 56.2366 21.6677 61.4522 21.6677C66.6679 21.6677 70.896 25.8958 70.896 31.1115C70.896 36.3271 66.6679 40.5552 61.4522 40.5552C56.2366 40.5552 52.0085 36.3271 52.0085 31.1115Z" fill="#F7F7F7" stroke="#B7B7B7"/>
</svg>
